<mxfile host="Electron" agent="Mozilla/5.0 (Windows NT 10.0; Win64; x64) AppleWebKit/537.36 (KHTML, like Gecko) draw.io/24.7.8 Chrome/128.0.6613.36 Electron/32.0.1 Safari/537.36" version="24.7.8">
  <diagram name="PÃ¡gina-1" id="likM_Zx0xi8ce1BpOYYx">
    <mxGraphModel dx="1199" dy="1183" grid="1" gridSize="10" guides="1" tooltips="1" connect="1" arrows="1" fold="1" page="1" pageScale="1" pageWidth="827" pageHeight="1169" math="0" shadow="0">
      <root>
        <mxCell id="0" />
        <mxCell id="1" parent="0" />
        <mxCell id="uN7vdesGVFmBK7bu6LfC-3" value="Loop 1" style="swimlane;whiteSpace=wrap;html=1;" parent="1" vertex="1">
          <mxGeometry x="850" y="40" width="330" height="700" as="geometry" />
        </mxCell>
        <mxCell id="Ca2ilZbx1kHiZppOascD-66" style="edgeStyle=orthogonalEdgeStyle;rounded=0;orthogonalLoop=1;jettySize=auto;html=1;entryX=0.5;entryY=0;entryDx=0;entryDy=0;exitX=0.5;exitY=1;exitDx=0;exitDy=0;" parent="uN7vdesGVFmBK7bu6LfC-3" source="k9-nfReed8sQI3W7NkR--3" target="Ca2ilZbx1kHiZppOascD-42" edge="1">
          <mxGeometry relative="1" as="geometry">
            <mxPoint x="165" y="529.9999999999998" as="sourcePoint" />
          </mxGeometry>
        </mxCell>
        <mxCell id="Ca2ilZbx1kHiZppOascD-47" style="edgeStyle=orthogonalEdgeStyle;rounded=0;orthogonalLoop=1;jettySize=auto;html=1;entryX=0.5;entryY=0;entryDx=0;entryDy=0;" parent="uN7vdesGVFmBK7bu6LfC-3" source="Ca2ilZbx1kHiZppOascD-45" target="k9-nfReed8sQI3W7NkR--2" edge="1">
          <mxGeometry relative="1" as="geometry">
            <mxPoint x="165" y="110" as="targetPoint" />
          </mxGeometry>
        </mxCell>
        <mxCell id="Ca2ilZbx1kHiZppOascD-45" value="" style="ellipse;html=1;shape=startState;fillColor=#000000;strokeColor=#ff0000;" parent="uN7vdesGVFmBK7bu6LfC-3" vertex="1">
          <mxGeometry x="150" y="40" width="30" height="30" as="geometry" />
        </mxCell>
        <mxCell id="pf0GH9d-eC52JOH4xIW8-1" style="edgeStyle=orthogonalEdgeStyle;rounded=0;orthogonalLoop=1;jettySize=auto;html=1;entryX=0;entryY=0.5;entryDx=0;entryDy=0;" parent="uN7vdesGVFmBK7bu6LfC-3" source="Ca2ilZbx1kHiZppOascD-42" target="Ca2ilZbx1kHiZppOascD-45" edge="1">
          <mxGeometry relative="1" as="geometry">
            <Array as="points">
              <mxPoint x="50" y="645" />
              <mxPoint x="50" y="55" />
            </Array>
          </mxGeometry>
        </mxCell>
        <mxCell id="Ca2ilZbx1kHiZppOascD-42" value="" style="ellipse;html=1;shape=endState;fillColor=#000000;strokeColor=#ff0000;" parent="uN7vdesGVFmBK7bu6LfC-3" vertex="1">
          <mxGeometry x="150" y="630" width="30" height="30" as="geometry" />
        </mxCell>
        <mxCell id="k9-nfReed8sQI3W7NkR--9" style="edgeStyle=orthogonalEdgeStyle;rounded=0;orthogonalLoop=1;jettySize=auto;html=1;entryX=0.5;entryY=0;entryDx=0;entryDy=0;" parent="uN7vdesGVFmBK7bu6LfC-3" source="k9-nfReed8sQI3W7NkR--2" target="k9-nfReed8sQI3W7NkR--1" edge="1">
          <mxGeometry relative="1" as="geometry" />
        </mxCell>
        <mxCell id="k9-nfReed8sQI3W7NkR--2" value="Ler Inputs" style="shape=parallelogram;perimeter=parallelogramPerimeter;whiteSpace=wrap;html=1;fixedSize=1;" parent="uN7vdesGVFmBK7bu6LfC-3" vertex="1">
          <mxGeometry x="105" y="110" width="120" height="60" as="geometry" />
        </mxCell>
        <mxCell id="k9-nfReed8sQI3W7NkR--3" value="Escrever Outputs" style="shape=parallelogram;perimeter=parallelogramPerimeter;whiteSpace=wrap;html=1;fixedSize=1;" parent="uN7vdesGVFmBK7bu6LfC-3" vertex="1">
          <mxGeometry x="105" y="540" width="120" height="60" as="geometry" />
        </mxCell>
        <mxCell id="k9-nfReed8sQI3W7NkR--7" style="edgeStyle=orthogonalEdgeStyle;rounded=0;orthogonalLoop=1;jettySize=auto;html=1;entryX=0.5;entryY=0;entryDx=0;entryDy=0;" parent="uN7vdesGVFmBK7bu6LfC-3" source="k9-nfReed8sQI3W7NkR--1" target="k9-nfReed8sQI3W7NkR--4" edge="1">
          <mxGeometry relative="1" as="geometry" />
        </mxCell>
        <mxCell id="k9-nfReed8sQI3W7NkR--1" value="Gerir Indicadores" style="shape=process;whiteSpace=wrap;html=1;backgroundOutline=1;" parent="uN7vdesGVFmBK7bu6LfC-3" vertex="1">
          <mxGeometry x="105" y="220" width="120" height="60" as="geometry" />
        </mxCell>
        <mxCell id="k9-nfReed8sQI3W7NkR--6" style="edgeStyle=orthogonalEdgeStyle;rounded=0;orthogonalLoop=1;jettySize=auto;html=1;entryX=0.5;entryY=0;entryDx=0;entryDy=0;" parent="uN7vdesGVFmBK7bu6LfC-3" source="k9-nfReed8sQI3W7NkR--4" target="k9-nfReed8sQI3W7NkR--5" edge="1">
          <mxGeometry relative="1" as="geometry" />
        </mxCell>
        <mxCell id="k9-nfReed8sQI3W7NkR--4" value="Gerir Modos" style="shape=process;whiteSpace=wrap;html=1;backgroundOutline=1;" parent="uN7vdesGVFmBK7bu6LfC-3" vertex="1">
          <mxGeometry x="105" y="330" width="120" height="60" as="geometry" />
        </mxCell>
        <mxCell id="k9-nfReed8sQI3W7NkR--8" style="edgeStyle=orthogonalEdgeStyle;rounded=0;orthogonalLoop=1;jettySize=auto;html=1;exitX=0.5;exitY=1;exitDx=0;exitDy=0;entryX=0.5;entryY=0;entryDx=0;entryDy=0;" parent="uN7vdesGVFmBK7bu6LfC-3" source="k9-nfReed8sQI3W7NkR--5" target="k9-nfReed8sQI3W7NkR--3" edge="1">
          <mxGeometry relative="1" as="geometry" />
        </mxCell>
        <mxCell id="k9-nfReed8sQI3W7NkR--5" value="State Machine" style="shape=process;whiteSpace=wrap;html=1;backgroundOutline=1;" parent="uN7vdesGVFmBK7bu6LfC-3" vertex="1">
          <mxGeometry x="105" y="435" width="120" height="60" as="geometry" />
        </mxCell>
        <mxCell id="uN7vdesGVFmBK7bu6LfC-4" value="Loop 2" style="swimlane;whiteSpace=wrap;html=1;" parent="1" vertex="1">
          <mxGeometry x="850" y="770" width="330" height="450" as="geometry" />
        </mxCell>
        <mxCell id="Ca2ilZbx1kHiZppOascD-49" value="" style="ellipse;html=1;shape=startState;fillColor=#000000;strokeColor=#ff0000;" parent="uN7vdesGVFmBK7bu6LfC-4" vertex="1">
          <mxGeometry x="150" y="45" width="30" height="30" as="geometry" />
        </mxCell>
        <mxCell id="Ca2ilZbx1kHiZppOascD-55" style="edgeStyle=orthogonalEdgeStyle;rounded=0;orthogonalLoop=1;jettySize=auto;html=1;entryX=0;entryY=0.5;entryDx=0;entryDy=0;" parent="uN7vdesGVFmBK7bu6LfC-4" source="Ca2ilZbx1kHiZppOascD-52" target="Ca2ilZbx1kHiZppOascD-49" edge="1">
          <mxGeometry relative="1" as="geometry">
            <Array as="points">
              <mxPoint x="50" y="420" />
              <mxPoint x="50" y="60" />
            </Array>
          </mxGeometry>
        </mxCell>
        <mxCell id="Ca2ilZbx1kHiZppOascD-52" value="" style="ellipse;html=1;shape=endState;fillColor=#000000;strokeColor=#ff0000;" parent="uN7vdesGVFmBK7bu6LfC-4" vertex="1">
          <mxGeometry x="150" y="405" width="30" height="30" as="geometry" />
        </mxCell>
        <mxCell id="rFUrf5F7s-oBZw886MH_-20" style="edgeStyle=orthogonalEdgeStyle;rounded=0;orthogonalLoop=1;jettySize=auto;html=1;entryX=0.5;entryY=0;entryDx=0;entryDy=0;" parent="uN7vdesGVFmBK7bu6LfC-4" source="rFUrf5F7s-oBZw886MH_-18" target="rFUrf5F7s-oBZw886MH_-19" edge="1">
          <mxGeometry relative="1" as="geometry" />
        </mxCell>
        <mxCell id="rFUrf5F7s-oBZw886MH_-18" value="Limpar Clientes do WebSocket" style="shape=process;whiteSpace=wrap;html=1;backgroundOutline=1;" parent="uN7vdesGVFmBK7bu6LfC-4" vertex="1">
          <mxGeometry x="105" y="125" width="120" height="60" as="geometry" />
        </mxCell>
        <mxCell id="rFUrf5F7s-oBZw886MH_-19" value="Gerir Temporizador" style="shape=process;whiteSpace=wrap;html=1;backgroundOutline=1;" parent="uN7vdesGVFmBK7bu6LfC-4" vertex="1">
          <mxGeometry x="105" y="265" width="120" height="60" as="geometry" />
        </mxCell>
        <mxCell id="Ca2ilZbx1kHiZppOascD-51" style="edgeStyle=orthogonalEdgeStyle;rounded=0;orthogonalLoop=1;jettySize=auto;html=1;entryX=0.5;entryY=0;entryDx=0;entryDy=0;" parent="uN7vdesGVFmBK7bu6LfC-4" source="Ca2ilZbx1kHiZppOascD-49" target="rFUrf5F7s-oBZw886MH_-18" edge="1">
          <mxGeometry relative="1" as="geometry">
            <mxPoint x="165" y="135.00000000000045" as="targetPoint" />
          </mxGeometry>
        </mxCell>
        <mxCell id="Ca2ilZbx1kHiZppOascD-38" style="edgeStyle=orthogonalEdgeStyle;rounded=0;orthogonalLoop=1;jettySize=auto;html=1;exitX=0.5;exitY=1;exitDx=0;exitDy=0;entryX=0.5;entryY=0;entryDx=0;entryDy=0;" parent="uN7vdesGVFmBK7bu6LfC-4" source="rFUrf5F7s-oBZw886MH_-19" target="Ca2ilZbx1kHiZppOascD-52" edge="1">
          <mxGeometry relative="1" as="geometry">
            <mxPoint x="165" y="305" as="targetPoint" />
            <mxPoint x="165" y="335.00000000000045" as="sourcePoint" />
          </mxGeometry>
        </mxCell>
        <mxCell id="uZZfNIIS-nihaKnwNUZ8-1" value="Gerir Modos" style="swimlane;whiteSpace=wrap;html=1;" parent="1" vertex="1">
          <mxGeometry x="1550" y="40" width="450" height="770" as="geometry" />
        </mxCell>
        <mxCell id="uZZfNIIS-nihaKnwNUZ8-2" value="ToggleAutoMode" style="rounded=0;whiteSpace=wrap;html=1;" parent="uZZfNIIS-nihaKnwNUZ8-1" vertex="1">
          <mxGeometry x="47" y="240" width="120" height="60" as="geometry" />
        </mxCell>
        <mxCell id="uZZfNIIS-nihaKnwNUZ8-3" value="setIndAuto(getAutoModeWeb)" style="rounded=0;whiteSpace=wrap;html=1;" parent="uZZfNIIS-nihaKnwNUZ8-1" vertex="1">
          <mxGeometry x="22" y="330" width="170" height="60" as="geometry" />
        </mxCell>
        <mxCell id="uZZfNIIS-nihaKnwNUZ8-4" value="setIndAuto(OFF)" style="rounded=0;whiteSpace=wrap;html=1;" parent="uZZfNIIS-nihaKnwNUZ8-1" vertex="1">
          <mxGeometry x="263.25" y="330" width="120" height="60" as="geometry" />
        </mxCell>
        <mxCell id="uZZfNIIS-nihaKnwNUZ8-5" value="setAutoModeWeb(OFF)" style="rounded=0;whiteSpace=wrap;html=1;" parent="uZZfNIIS-nihaKnwNUZ8-1" vertex="1">
          <mxGeometry x="253.25" y="240" width="140" height="60" as="geometry" />
        </mxCell>
        <mxCell id="uZZfNIIS-nihaKnwNUZ8-6" style="edgeStyle=orthogonalEdgeStyle;rounded=0;orthogonalLoop=1;jettySize=auto;html=1;exitX=0.5;exitY=1;exitDx=0;exitDy=0;entryX=0.433;entryY=-0.05;entryDx=0;entryDy=0;entryPerimeter=0;" parent="uZZfNIIS-nihaKnwNUZ8-1" source="uZZfNIIS-nihaKnwNUZ8-5" target="uZZfNIIS-nihaKnwNUZ8-4" edge="1">
          <mxGeometry relative="1" as="geometry" />
        </mxCell>
        <mxCell id="uZZfNIIS-nihaKnwNUZ8-7" value="setTimer(OFF)" style="rounded=0;whiteSpace=wrap;html=1;" parent="uZZfNIIS-nihaKnwNUZ8-1" vertex="1">
          <mxGeometry x="303.25" y="540" width="120" height="60" as="geometry" />
        </mxCell>
        <mxCell id="uZZfNIIS-nihaKnwNUZ8-8" style="edgeStyle=orthogonalEdgeStyle;rounded=0;orthogonalLoop=1;jettySize=auto;html=1;entryX=0.5;entryY=0;entryDx=0;entryDy=0;" parent="uZZfNIIS-nihaKnwNUZ8-1" source="uZZfNIIS-nihaKnwNUZ8-9" target="uZZfNIIS-nihaKnwNUZ8-16" edge="1">
          <mxGeometry relative="1" as="geometry">
            <mxPoint x="-6.750000000000227" y="470" as="targetPoint" />
            <Array as="points">
              <mxPoint x="223.25" y="480" />
              <mxPoint x="223.25" y="480" />
            </Array>
          </mxGeometry>
        </mxCell>
        <mxCell id="uZZfNIIS-nihaKnwNUZ8-9" value="" style="shape=line;html=1;strokeWidth=6;strokeColor=#ff0000;rotation=0;" parent="uZZfNIIS-nihaKnwNUZ8-1" vertex="1">
          <mxGeometry x="193.25" y="440" width="60" height="10" as="geometry" />
        </mxCell>
        <mxCell id="uZZfNIIS-nihaKnwNUZ8-11" style="edgeStyle=orthogonalEdgeStyle;rounded=0;orthogonalLoop=1;jettySize=auto;html=1;entryX=0.25;entryY=0.5;entryDx=0;entryDy=0;entryPerimeter=0;exitX=0.5;exitY=1;exitDx=0;exitDy=0;" parent="uZZfNIIS-nihaKnwNUZ8-1" source="uZZfNIIS-nihaKnwNUZ8-3" target="uZZfNIIS-nihaKnwNUZ8-9" edge="1">
          <mxGeometry relative="1" as="geometry">
            <Array as="points">
              <mxPoint x="107.25" y="420" />
              <mxPoint x="208.25" y="420" />
            </Array>
          </mxGeometry>
        </mxCell>
        <mxCell id="i_7zmyXq9qHAbtsa0IMV-1" style="edgeStyle=orthogonalEdgeStyle;rounded=0;orthogonalLoop=1;jettySize=auto;html=1;entryX=0.5;entryY=0;entryDx=0;entryDy=0;" parent="uZZfNIIS-nihaKnwNUZ8-1" source="uZZfNIIS-nihaKnwNUZ8-12" target="uZZfNIIS-nihaKnwNUZ8-5" edge="1">
          <mxGeometry relative="1" as="geometry">
            <Array as="points">
              <mxPoint x="322" y="155" />
              <mxPoint x="322" y="215" />
              <mxPoint x="323" y="215" />
            </Array>
          </mxGeometry>
        </mxCell>
        <mxCell id="i_7zmyXq9qHAbtsa0IMV-3" value="Yes" style="edgeLabel;html=1;align=center;verticalAlign=middle;resizable=0;points=[];" parent="i_7zmyXq9qHAbtsa0IMV-1" vertex="1" connectable="0">
          <mxGeometry x="-0.6259" relative="1" as="geometry">
            <mxPoint x="-2" y="-8" as="offset" />
          </mxGeometry>
        </mxCell>
        <mxCell id="i_7zmyXq9qHAbtsa0IMV-2" style="edgeStyle=orthogonalEdgeStyle;rounded=0;orthogonalLoop=1;jettySize=auto;html=1;exitX=0;exitY=0.5;exitDx=0;exitDy=0;entryX=0.5;entryY=0;entryDx=0;entryDy=0;" parent="uZZfNIIS-nihaKnwNUZ8-1" source="uZZfNIIS-nihaKnwNUZ8-12" target="uZZfNIIS-nihaKnwNUZ8-2" edge="1">
          <mxGeometry relative="1" as="geometry" />
        </mxCell>
        <mxCell id="i_7zmyXq9qHAbtsa0IMV-4" value="No" style="edgeLabel;html=1;align=center;verticalAlign=middle;resizable=0;points=[];" parent="i_7zmyXq9qHAbtsa0IMV-2" vertex="1" connectable="0">
          <mxGeometry x="-0.6004" relative="1" as="geometry">
            <mxPoint y="-8" as="offset" />
          </mxGeometry>
        </mxCell>
        <mxCell id="uZZfNIIS-nihaKnwNUZ8-12" value="isManualMode" style="rhombus;whiteSpace=wrap;html=1;fontColor=default;fillColor=none;strokeColor=default;" parent="uZZfNIIS-nihaKnwNUZ8-1" vertex="1">
          <mxGeometry x="173.87" y="120" width="98.75" height="70" as="geometry" />
        </mxCell>
        <mxCell id="uZZfNIIS-nihaKnwNUZ8-15" style="edgeStyle=orthogonalEdgeStyle;rounded=0;orthogonalLoop=1;jettySize=auto;html=1;entryX=0.5;entryY=0;entryDx=0;entryDy=0;" parent="uZZfNIIS-nihaKnwNUZ8-1" source="uZZfNIIS-nihaKnwNUZ8-2" target="uZZfNIIS-nihaKnwNUZ8-3" edge="1">
          <mxGeometry relative="1" as="geometry" />
        </mxCell>
        <mxCell id="sjrblWhV75rm7bRFAjVZ-1" style="edgeStyle=orthogonalEdgeStyle;rounded=0;orthogonalLoop=1;jettySize=auto;html=1;entryX=0.5;entryY=0;entryDx=0;entryDy=0;" edge="1" parent="uZZfNIIS-nihaKnwNUZ8-1" source="uZZfNIIS-nihaKnwNUZ8-16" target="uZZfNIIS-nihaKnwNUZ8-7">
          <mxGeometry relative="1" as="geometry" />
        </mxCell>
        <mxCell id="sjrblWhV75rm7bRFAjVZ-2" value="No" style="edgeLabel;html=1;align=center;verticalAlign=middle;resizable=0;points=[];" vertex="1" connectable="0" parent="sjrblWhV75rm7bRFAjVZ-1">
          <mxGeometry x="-0.5879" relative="1" as="geometry">
            <mxPoint y="-9" as="offset" />
          </mxGeometry>
        </mxCell>
        <mxCell id="uZZfNIIS-nihaKnwNUZ8-16" value="isAutoMode" style="rhombus;whiteSpace=wrap;html=1;fontColor=default;fillColor=none;strokeColor=default;" parent="uZZfNIIS-nihaKnwNUZ8-1" vertex="1">
          <mxGeometry x="180.75" y="490" width="85" height="50" as="geometry" />
        </mxCell>
        <mxCell id="k9-nfReed8sQI3W7NkR--19" style="edgeStyle=orthogonalEdgeStyle;rounded=0;orthogonalLoop=1;jettySize=auto;html=1;entryX=0.5;entryY=0;entryDx=0;entryDy=0;" parent="uZZfNIIS-nihaKnwNUZ8-1" source="N6X8UDN1nyHAMwZkCKIL-1" target="k9-nfReed8sQI3W7NkR--17" edge="1">
          <mxGeometry relative="1" as="geometry" />
        </mxCell>
        <mxCell id="N6X8UDN1nyHAMwZkCKIL-1" value="" style="shape=line;html=1;strokeWidth=6;strokeColor=#ff0000;rotation=-180;" parent="uZZfNIIS-nihaKnwNUZ8-1" vertex="1">
          <mxGeometry x="192" y="670" width="60" height="10" as="geometry" />
        </mxCell>
        <mxCell id="N6X8UDN1nyHAMwZkCKIL-2" style="edgeStyle=orthogonalEdgeStyle;rounded=0;orthogonalLoop=1;jettySize=auto;html=1;entryX=0.25;entryY=0.5;entryDx=0;entryDy=0;entryPerimeter=0;exitX=0.5;exitY=1;exitDx=0;exitDy=0;" parent="uZZfNIIS-nihaKnwNUZ8-1" source="uZZfNIIS-nihaKnwNUZ8-7" target="N6X8UDN1nyHAMwZkCKIL-1" edge="1">
          <mxGeometry relative="1" as="geometry">
            <Array as="points">
              <mxPoint x="363.25" y="630" />
              <mxPoint x="237.25" y="630" />
              <mxPoint x="237.25" y="660" />
              <mxPoint x="237.25" y="660" />
            </Array>
          </mxGeometry>
        </mxCell>
        <mxCell id="N6X8UDN1nyHAMwZkCKIL-3" style="edgeStyle=orthogonalEdgeStyle;rounded=0;orthogonalLoop=1;jettySize=auto;html=1;entryX=0.75;entryY=0.5;entryDx=0;entryDy=0;entryPerimeter=0;exitX=0;exitY=0.5;exitDx=0;exitDy=0;" parent="uZZfNIIS-nihaKnwNUZ8-1" source="uZZfNIIS-nihaKnwNUZ8-16" target="N6X8UDN1nyHAMwZkCKIL-1" edge="1">
          <mxGeometry relative="1" as="geometry">
            <Array as="points">
              <mxPoint x="132" y="515" />
              <mxPoint x="132" y="630" />
              <mxPoint x="207" y="630" />
            </Array>
          </mxGeometry>
        </mxCell>
        <mxCell id="N6X8UDN1nyHAMwZkCKIL-7" value="Yes" style="edgeLabel;html=1;align=center;verticalAlign=middle;resizable=0;points=[];" parent="N6X8UDN1nyHAMwZkCKIL-3" vertex="1" connectable="0">
          <mxGeometry x="-0.1002" y="1" relative="1" as="geometry">
            <mxPoint x="25" y="-87" as="offset" />
          </mxGeometry>
        </mxCell>
        <mxCell id="k9-nfReed8sQI3W7NkR--15" style="edgeStyle=orthogonalEdgeStyle;rounded=0;orthogonalLoop=1;jettySize=auto;html=1;entryX=0.75;entryY=0.5;entryDx=0;entryDy=0;entryPerimeter=0;" parent="uZZfNIIS-nihaKnwNUZ8-1" source="uZZfNIIS-nihaKnwNUZ8-4" target="uZZfNIIS-nihaKnwNUZ8-9" edge="1">
          <mxGeometry relative="1" as="geometry">
            <Array as="points">
              <mxPoint x="323.25" y="420" />
              <mxPoint x="238.25" y="420" />
            </Array>
          </mxGeometry>
        </mxCell>
        <mxCell id="k9-nfReed8sQI3W7NkR--18" style="edgeStyle=orthogonalEdgeStyle;rounded=0;orthogonalLoop=1;jettySize=auto;html=1;entryX=0.5;entryY=0;entryDx=0;entryDy=0;" parent="uZZfNIIS-nihaKnwNUZ8-1" source="k9-nfReed8sQI3W7NkR--16" target="uZZfNIIS-nihaKnwNUZ8-12" edge="1">
          <mxGeometry relative="1" as="geometry" />
        </mxCell>
        <mxCell id="k9-nfReed8sQI3W7NkR--16" value="" style="ellipse;html=1;shape=startState;fillColor=#000000;strokeColor=#ff0000;" parent="uZZfNIIS-nihaKnwNUZ8-1" vertex="1">
          <mxGeometry x="208" y="50" width="30" height="30" as="geometry" />
        </mxCell>
        <mxCell id="k9-nfReed8sQI3W7NkR--17" value="" style="ellipse;html=1;shape=endState;fillColor=#000000;strokeColor=#ff0000;" parent="uZZfNIIS-nihaKnwNUZ8-1" vertex="1">
          <mxGeometry x="207" y="720" width="30" height="30" as="geometry" />
        </mxCell>
        <mxCell id="uZZfNIIS-nihaKnwNUZ8-20" value="Gerir Indicadores" style="swimlane;whiteSpace=wrap;html=1;" parent="1" vertex="1">
          <mxGeometry x="1200" y="40" width="330" height="620" as="geometry" />
        </mxCell>
        <mxCell id="uZZfNIIS-nihaKnwNUZ8-41" style="edgeStyle=orthogonalEdgeStyle;rounded=0;orthogonalLoop=1;jettySize=auto;html=1;entryX=0.5;entryY=0;entryDx=0;entryDy=0;" parent="uZZfNIIS-nihaKnwNUZ8-20" source="uZZfNIIS-nihaKnwNUZ8-37" target="uZZfNIIS-nihaKnwNUZ8-40" edge="1">
          <mxGeometry relative="1" as="geometry" />
        </mxCell>
        <mxCell id="uZZfNIIS-nihaKnwNUZ8-37" value="setIndMax(getWaterMax())" style="rounded=0;whiteSpace=wrap;fontColor=default;labelBackgroundColor=none;html=1;" parent="uZZfNIIS-nihaKnwNUZ8-20" vertex="1">
          <mxGeometry x="60" y="120" width="210" height="60" as="geometry" />
        </mxCell>
        <mxCell id="uZZfNIIS-nihaKnwNUZ8-42" style="edgeStyle=orthogonalEdgeStyle;rounded=0;orthogonalLoop=1;jettySize=auto;html=1;entryX=0.5;entryY=0;entryDx=0;entryDy=0;" parent="uZZfNIIS-nihaKnwNUZ8-20" source="uZZfNIIS-nihaKnwNUZ8-40" target="uZZfNIIS-nihaKnwNUZ8-39" edge="1">
          <mxGeometry relative="1" as="geometry" />
        </mxCell>
        <mxCell id="uZZfNIIS-nihaKnwNUZ8-40" value="setIndMin(getWaterMin())" style="rounded=0;whiteSpace=wrap;fontColor=default;labelBackgroundColor=none;html=1;" parent="uZZfNIIS-nihaKnwNUZ8-20" vertex="1">
          <mxGeometry x="60" y="230" width="210" height="60" as="geometry" />
        </mxCell>
        <mxCell id="uZZfNIIS-nihaKnwNUZ8-43" style="edgeStyle=orthogonalEdgeStyle;rounded=0;orthogonalLoop=1;jettySize=auto;html=1;entryX=0.5;entryY=0;entryDx=0;entryDy=0;" parent="uZZfNIIS-nihaKnwNUZ8-20" source="uZZfNIIS-nihaKnwNUZ8-39" target="uZZfNIIS-nihaKnwNUZ8-38" edge="1">
          <mxGeometry relative="1" as="geometry" />
        </mxCell>
        <mxCell id="uZZfNIIS-nihaKnwNUZ8-39" value="setIndAlarm(getAlarmIND())" style="rounded=0;whiteSpace=wrap;fontColor=default;labelBackgroundColor=none;html=1;" parent="uZZfNIIS-nihaKnwNUZ8-20" vertex="1">
          <mxGeometry x="60" y="350" width="210" height="60" as="geometry" />
        </mxCell>
        <mxCell id="k9-nfReed8sQI3W7NkR--14" style="edgeStyle=orthogonalEdgeStyle;rounded=0;orthogonalLoop=1;jettySize=auto;html=1;entryX=0.5;entryY=0;entryDx=0;entryDy=0;" parent="uZZfNIIS-nihaKnwNUZ8-20" source="uZZfNIIS-nihaKnwNUZ8-38" target="k9-nfReed8sQI3W7NkR--12" edge="1">
          <mxGeometry relative="1" as="geometry" />
        </mxCell>
        <mxCell id="uZZfNIIS-nihaKnwNUZ8-38" value="setIndMan(getManualMode())" style="rounded=0;whiteSpace=wrap;fontColor=default;labelBackgroundColor=none;html=1;" parent="uZZfNIIS-nihaKnwNUZ8-20" vertex="1">
          <mxGeometry x="60" y="460" width="210" height="60" as="geometry" />
        </mxCell>
        <mxCell id="k9-nfReed8sQI3W7NkR--13" style="edgeStyle=orthogonalEdgeStyle;rounded=0;orthogonalLoop=1;jettySize=auto;html=1;exitX=0.5;exitY=1;exitDx=0;exitDy=0;entryX=0.5;entryY=0;entryDx=0;entryDy=0;" parent="uZZfNIIS-nihaKnwNUZ8-20" source="k9-nfReed8sQI3W7NkR--11" target="uZZfNIIS-nihaKnwNUZ8-37" edge="1">
          <mxGeometry relative="1" as="geometry" />
        </mxCell>
        <mxCell id="k9-nfReed8sQI3W7NkR--11" value="" style="ellipse;html=1;shape=startState;fillColor=#000000;strokeColor=#ff0000;" parent="uZZfNIIS-nihaKnwNUZ8-20" vertex="1">
          <mxGeometry x="150" y="60" width="30" height="30" as="geometry" />
        </mxCell>
        <mxCell id="k9-nfReed8sQI3W7NkR--12" value="" style="ellipse;html=1;shape=endState;fillColor=#000000;strokeColor=#ff0000;" parent="uZZfNIIS-nihaKnwNUZ8-20" vertex="1">
          <mxGeometry x="150" y="560" width="30" height="30" as="geometry" />
        </mxCell>
        <mxCell id="uZZfNIIS-nihaKnwNUZ8-49" value="State Machine" style="swimlane;whiteSpace=wrap;html=1;startSize=23;" parent="1" vertex="1">
          <mxGeometry x="2020" y="40" width="500" height="895" as="geometry" />
        </mxCell>
        <mxCell id="k9-nfReed8sQI3W7NkR--23" style="edgeStyle=orthogonalEdgeStyle;rounded=0;orthogonalLoop=1;jettySize=auto;html=1;entryX=0.5;entryY=0;entryDx=0;entryDy=0;exitX=0.467;exitY=0.7;exitDx=0;exitDy=0;exitPerimeter=0;" parent="uZZfNIIS-nihaKnwNUZ8-49" source="rFUrf5F7s-oBZw886MH_-15" target="k9-nfReed8sQI3W7NkR--22" edge="1">
          <mxGeometry relative="1" as="geometry">
            <mxPoint x="248.94736842105294" y="805" as="sourcePoint" />
          </mxGeometry>
        </mxCell>
        <mxCell id="k9-nfReed8sQI3W7NkR--24" style="edgeStyle=orthogonalEdgeStyle;rounded=0;orthogonalLoop=1;jettySize=auto;html=1;entryX=0.5;entryY=0;entryDx=0;entryDy=0;" parent="uZZfNIIS-nihaKnwNUZ8-49" source="k9-nfReed8sQI3W7NkR--21" target="k9-nfReed8sQI3W7NkR--25" edge="1">
          <mxGeometry relative="1" as="geometry">
            <mxPoint x="250" y="115" as="targetPoint" />
          </mxGeometry>
        </mxCell>
        <mxCell id="k9-nfReed8sQI3W7NkR--21" value="" style="ellipse;html=1;shape=startState;fillColor=#000000;strokeColor=#ff0000;" parent="uZZfNIIS-nihaKnwNUZ8-49" vertex="1">
          <mxGeometry x="235.5" y="45" width="30" height="30" as="geometry" />
        </mxCell>
        <mxCell id="k9-nfReed8sQI3W7NkR--22" value="" style="ellipse;html=1;shape=endState;fillColor=#000000;strokeColor=#ff0000;" parent="uZZfNIIS-nihaKnwNUZ8-49" vertex="1">
          <mxGeometry x="233" y="830" width="30" height="30" as="geometry" />
        </mxCell>
        <mxCell id="k9-nfReed8sQI3W7NkR--28" style="edgeStyle=orthogonalEdgeStyle;rounded=0;orthogonalLoop=1;jettySize=auto;html=1;entryX=0.5;entryY=0;entryDx=0;entryDy=0;" parent="uZZfNIIS-nihaKnwNUZ8-49" source="k9-nfReed8sQI3W7NkR--25" target="k9-nfReed8sQI3W7NkR--26" edge="1">
          <mxGeometry relative="1" as="geometry" />
        </mxCell>
        <mxCell id="k9-nfReed8sQI3W7NkR--29" value="Yes" style="edgeLabel;html=1;align=center;verticalAlign=middle;resizable=0;points=[];" parent="k9-nfReed8sQI3W7NkR--28" vertex="1" connectable="0">
          <mxGeometry x="-0.3656" y="-1" relative="1" as="geometry">
            <mxPoint y="-9" as="offset" />
          </mxGeometry>
        </mxCell>
        <mxCell id="k9-nfReed8sQI3W7NkR--32" style="edgeStyle=orthogonalEdgeStyle;rounded=0;orthogonalLoop=1;jettySize=auto;html=1;exitX=0;exitY=0.5;exitDx=0;exitDy=0;entryX=0.5;entryY=0;entryDx=0;entryDy=0;" parent="uZZfNIIS-nihaKnwNUZ8-49" source="k9-nfReed8sQI3W7NkR--25" target="rFUrf5F7s-oBZw886MH_-1" edge="1">
          <mxGeometry relative="1" as="geometry" />
        </mxCell>
        <mxCell id="k9-nfReed8sQI3W7NkR--33" value="No" style="edgeLabel;html=1;align=center;verticalAlign=middle;resizable=0;points=[];" parent="k9-nfReed8sQI3W7NkR--32" vertex="1" connectable="0">
          <mxGeometry x="-0.2489" y="-1" relative="1" as="geometry">
            <mxPoint y="-8" as="offset" />
          </mxGeometry>
        </mxCell>
        <mxCell id="k9-nfReed8sQI3W7NkR--25" value="isWaterMax" style="rhombus;whiteSpace=wrap;html=1;" parent="uZZfNIIS-nihaKnwNUZ8-49" vertex="1">
          <mxGeometry x="210.5" y="105" width="80" height="80" as="geometry" />
        </mxCell>
        <mxCell id="k9-nfReed8sQI3W7NkR--30" style="edgeStyle=orthogonalEdgeStyle;rounded=0;orthogonalLoop=1;jettySize=auto;html=1;entryX=0.5;entryY=0;entryDx=0;entryDy=0;" parent="uZZfNIIS-nihaKnwNUZ8-49" source="k9-nfReed8sQI3W7NkR--26" target="k9-nfReed8sQI3W7NkR--27" edge="1">
          <mxGeometry relative="1" as="geometry" />
        </mxCell>
        <mxCell id="k9-nfReed8sQI3W7NkR--26" value="BMB_FLAG = OFF" style="rounded=0;whiteSpace=wrap;html=1;" parent="uZZfNIIS-nihaKnwNUZ8-49" vertex="1">
          <mxGeometry x="350" y="195" width="120" height="60" as="geometry" />
        </mxCell>
        <mxCell id="k9-nfReed8sQI3W7NkR--27" value="setPumpWeb(OFF)" style="rounded=0;whiteSpace=wrap;html=1;" parent="uZZfNIIS-nihaKnwNUZ8-49" vertex="1">
          <mxGeometry x="350" y="295" width="120" height="60" as="geometry" />
        </mxCell>
        <mxCell id="k9-nfReed8sQI3W7NkR--31" value="BMB_FLAG = ON" style="rounded=0;whiteSpace=wrap;html=1;" parent="uZZfNIIS-nihaKnwNUZ8-49" vertex="1">
          <mxGeometry x="27.25" y="315" width="120" height="60" as="geometry" />
        </mxCell>
        <mxCell id="rFUrf5F7s-oBZw886MH_-2" style="edgeStyle=orthogonalEdgeStyle;rounded=0;orthogonalLoop=1;jettySize=auto;html=1;entryX=0.5;entryY=0;entryDx=0;entryDy=0;" parent="uZZfNIIS-nihaKnwNUZ8-49" source="rFUrf5F7s-oBZw886MH_-1" target="k9-nfReed8sQI3W7NkR--31" edge="1">
          <mxGeometry relative="1" as="geometry" />
        </mxCell>
        <mxCell id="rFUrf5F7s-oBZw886MH_-3" value="Yes" style="edgeLabel;html=1;align=center;verticalAlign=middle;resizable=0;points=[];" parent="rFUrf5F7s-oBZw886MH_-2" vertex="1" connectable="0">
          <mxGeometry x="0.0234" y="-2" relative="1" as="geometry">
            <mxPoint x="13" y="-5" as="offset" />
          </mxGeometry>
        </mxCell>
        <mxCell id="rFUrf5F7s-oBZw886MH_-1" value="isWaterMin&amp;nbsp;&lt;div&gt;or&lt;br&gt;&lt;div&gt;isAlarm&lt;/div&gt;&lt;/div&gt;" style="rhombus;whiteSpace=wrap;html=1;" parent="uZZfNIIS-nihaKnwNUZ8-49" vertex="1">
          <mxGeometry x="30" y="165" width="114.5" height="105" as="geometry" />
        </mxCell>
        <mxCell id="rFUrf5F7s-oBZw886MH_-14" style="edgeStyle=orthogonalEdgeStyle;rounded=0;orthogonalLoop=1;jettySize=auto;html=1;entryX=0.5;entryY=0;entryDx=0;entryDy=0;" parent="uZZfNIIS-nihaKnwNUZ8-49" source="rFUrf5F7s-oBZw886MH_-4" target="rFUrf5F7s-oBZw886MH_-7" edge="1">
          <mxGeometry relative="1" as="geometry" />
        </mxCell>
        <mxCell id="rFUrf5F7s-oBZw886MH_-4" value="" style="shape=line;html=1;strokeWidth=6;strokeColor=#ff0000;rotation=0;" parent="uZZfNIIS-nihaKnwNUZ8-49" vertex="1">
          <mxGeometry x="220.5" y="425" width="60" height="10" as="geometry" />
        </mxCell>
        <mxCell id="rFUrf5F7s-oBZw886MH_-5" style="edgeStyle=orthogonalEdgeStyle;rounded=0;orthogonalLoop=1;jettySize=auto;html=1;entryX=0.75;entryY=0.5;entryDx=0;entryDy=0;entryPerimeter=0;" parent="uZZfNIIS-nihaKnwNUZ8-49" source="k9-nfReed8sQI3W7NkR--27" target="rFUrf5F7s-oBZw886MH_-4" edge="1">
          <mxGeometry relative="1" as="geometry">
            <Array as="points">
              <mxPoint x="410" y="405" />
              <mxPoint x="266" y="405" />
            </Array>
          </mxGeometry>
        </mxCell>
        <mxCell id="rFUrf5F7s-oBZw886MH_-6" style="edgeStyle=orthogonalEdgeStyle;rounded=0;orthogonalLoop=1;jettySize=auto;html=1;entryX=0.25;entryY=0.5;entryDx=0;entryDy=0;entryPerimeter=0;" parent="uZZfNIIS-nihaKnwNUZ8-49" source="k9-nfReed8sQI3W7NkR--31" target="rFUrf5F7s-oBZw886MH_-4" edge="1">
          <mxGeometry relative="1" as="geometry">
            <Array as="points">
              <mxPoint x="87" y="405" />
              <mxPoint x="236" y="405" />
            </Array>
          </mxGeometry>
        </mxCell>
        <mxCell id="rFUrf5F7s-oBZw886MH_-10" style="edgeStyle=orthogonalEdgeStyle;rounded=0;orthogonalLoop=1;jettySize=auto;html=1;entryX=0.5;entryY=0;entryDx=0;entryDy=0;" parent="uZZfNIIS-nihaKnwNUZ8-49" source="rFUrf5F7s-oBZw886MH_-7" target="rFUrf5F7s-oBZw886MH_-8" edge="1">
          <mxGeometry relative="1" as="geometry" />
        </mxCell>
        <mxCell id="rFUrf5F7s-oBZw886MH_-12" value="No" style="edgeLabel;html=1;align=center;verticalAlign=middle;resizable=0;points=[];" parent="rFUrf5F7s-oBZw886MH_-10" vertex="1" connectable="0">
          <mxGeometry x="-0.4495" y="2" relative="1" as="geometry">
            <mxPoint y="-11" as="offset" />
          </mxGeometry>
        </mxCell>
        <mxCell id="rFUrf5F7s-oBZw886MH_-11" style="edgeStyle=orthogonalEdgeStyle;rounded=0;orthogonalLoop=1;jettySize=auto;html=1;entryX=0.5;entryY=0;entryDx=0;entryDy=0;" parent="uZZfNIIS-nihaKnwNUZ8-49" source="rFUrf5F7s-oBZw886MH_-7" target="rFUrf5F7s-oBZw886MH_-9" edge="1">
          <mxGeometry relative="1" as="geometry" />
        </mxCell>
        <mxCell id="rFUrf5F7s-oBZw886MH_-13" value="Yes" style="edgeLabel;html=1;align=center;verticalAlign=middle;resizable=0;points=[];" parent="rFUrf5F7s-oBZw886MH_-11" vertex="1" connectable="0">
          <mxGeometry x="-0.6701" y="-1" relative="1" as="geometry">
            <mxPoint x="1" y="-11" as="offset" />
          </mxGeometry>
        </mxCell>
        <mxCell id="rFUrf5F7s-oBZw886MH_-7" value="isWaterMax&lt;div&gt;or&lt;/div&gt;&lt;div&gt;isWaterMin&lt;/div&gt;&lt;div&gt;or&lt;/div&gt;&lt;div&gt;!isAlarm&lt;/div&gt;" style="rhombus;whiteSpace=wrap;html=1;" parent="uZZfNIIS-nihaKnwNUZ8-49" vertex="1">
          <mxGeometry x="180.5" y="455" width="140" height="125" as="geometry" />
        </mxCell>
        <mxCell id="rFUrf5F7s-oBZw886MH_-8" value="RAQ_FLAG=OFF" style="rounded=0;whiteSpace=wrap;html=1;" parent="uZZfNIIS-nihaKnwNUZ8-49" vertex="1">
          <mxGeometry x="30.5" y="595" width="120" height="60" as="geometry" />
        </mxCell>
        <mxCell id="rFUrf5F7s-oBZw886MH_-9" value="RAQ_FLAG=ON" style="rounded=0;whiteSpace=wrap;html=1;" parent="uZZfNIIS-nihaKnwNUZ8-49" vertex="1">
          <mxGeometry x="350.5" y="595" width="120" height="60" as="geometry" />
        </mxCell>
        <mxCell id="rFUrf5F7s-oBZw886MH_-15" value="" style="shape=line;html=1;strokeWidth=6;strokeColor=#ff0000;rotation=0;" parent="uZZfNIIS-nihaKnwNUZ8-49" vertex="1">
          <mxGeometry x="220" y="775" width="60" height="10" as="geometry" />
        </mxCell>
        <mxCell id="rFUrf5F7s-oBZw886MH_-16" style="edgeStyle=orthogonalEdgeStyle;rounded=0;orthogonalLoop=1;jettySize=auto;html=1;entryX=0.25;entryY=0.5;entryDx=0;entryDy=0;entryPerimeter=0;" parent="uZZfNIIS-nihaKnwNUZ8-49" source="rFUrf5F7s-oBZw886MH_-8" target="rFUrf5F7s-oBZw886MH_-15" edge="1">
          <mxGeometry relative="1" as="geometry">
            <Array as="points">
              <mxPoint x="90" y="725" />
              <mxPoint x="235" y="725" />
            </Array>
          </mxGeometry>
        </mxCell>
        <mxCell id="rFUrf5F7s-oBZw886MH_-17" style="edgeStyle=orthogonalEdgeStyle;rounded=0;orthogonalLoop=1;jettySize=auto;html=1;entryX=0.75;entryY=0.5;entryDx=0;entryDy=0;entryPerimeter=0;" parent="uZZfNIIS-nihaKnwNUZ8-49" source="rFUrf5F7s-oBZw886MH_-9" target="rFUrf5F7s-oBZw886MH_-15" edge="1">
          <mxGeometry relative="1" as="geometry">
            <Array as="points">
              <mxPoint x="410" y="725" />
              <mxPoint x="265" y="725" />
            </Array>
          </mxGeometry>
        </mxCell>
      </root>
    </mxGraphModel>
  </diagram>
</mxfile>
